<svg xmlns="http://www.w3.org/2000/svg" width="342" height="104" viewBox="0 0 342 104" fill="none">
<path d="M162.857 92.3404L162.858 92.3408C164.244 93.9447 165.279 96.0955 167.023 100.13C167.708 101.715 169.269 102.75 171 102.75C172.731 102.75 174.292 101.715 174.977 100.13C176.721 96.0955 177.756 93.9447 179.142 92.3408L179.143 92.3404C179.369 92.0775 179.605 91.7892 179.846 91.4949L179.848 91.4921C181.594 89.3555 183.766 86.75 187.5 86.75H326C334.146 86.75 340.75 80.1462 340.75 72V16C340.75 7.8538 334.146 1.25 326 1.25H16C7.8538 1.25 1.25 7.8538 1.25 16V72C1.25 80.1462 7.85379 86.75 16 86.75H154.5C158.234 86.75 160.406 89.3556 162.152 91.4921L162.157 91.4982C162.397 91.7914 162.631 92.0785 162.857 92.3404Z" fill="white" stroke="#9CA3AF" style="fill:white;fill-opacity:1;stroke:#9CA3AF;stroke:color(display-p3 0.6118 0.6392 0.6863);stroke-opacity:1;" stroke-width="1.5"/>
</svg>