<svg width="52" height="60" viewBox="0 0 52 60" fill="none" xmlns="http://www.w3.org/2000/svg">
<mask id="path-1-outside-1_378_5351" maskUnits="userSpaceOnUse" x="0" y="0" width="52" height="60" fill="black">
<rect fill="white" width="52" height="60"/>
<path fill-rule="evenodd" clip-rule="evenodd" d="M14 2C7.37258 2 2 7.37258 2 14V38C2 44.6274 7.37258 50 14 50H15C17.629 50 19.1436 51.4558 20.239 52.5087C20.3936 52.6573 20.5398 52.7979 20.6797 52.9252C21.5814 53.7447 22.249 54.8209 23.2791 56.6836C23.7266 57.4928 24.5753 58 25.5 58C26.4247 58 27.2734 57.4928 27.7209 56.6836C28.751 54.8209 29.4186 53.7447 30.3203 52.9252C30.4602 52.7979 30.6064 52.6573 30.761 52.5087C31.8564 51.4558 33.371 50 36 50H38C44.6274 50 50 44.6274 50 38V14C50 7.37258 44.6274 2 38 2H14Z"/>
</mask>
<path fill-rule="evenodd" clip-rule="evenodd" d="M14 2C7.37258 2 2 7.37258 2 14V38C2 44.6274 7.37258 50 14 50H15C17.629 50 19.1436 51.4558 20.239 52.5087C20.3936 52.6573 20.5398 52.7979 20.6797 52.9252C21.5814 53.7447 22.249 54.8209 23.2791 56.6836C23.7266 57.4928 24.5753 58 25.5 58C26.4247 58 27.2734 57.4928 27.7209 56.6836C28.751 54.8209 29.4186 53.7447 30.3203 52.9252C30.4602 52.7979 30.6064 52.6573 30.761 52.5087C31.8564 51.4558 33.371 50 36 50H38C44.6274 50 50 44.6274 50 38V14C50 7.37258 44.6274 2 38 2H14Z" fill="black" style="fill:black;fill-opacity:1;"/>
<path d="M20.239 52.5087L18.8531 53.9506L18.8531 53.9506L20.239 52.5087ZM20.6797 52.9252L19.3333 54.4041L19.3345 54.4052L20.6797 52.9252ZM23.2791 56.6836L25.0293 55.7158L23.2791 56.6836ZM27.7209 56.6836L25.9707 55.7158L27.7209 56.6836ZM30.3203 52.9252L31.6655 54.4052L31.6667 54.4041L30.3203 52.9252ZM30.761 52.5087L32.1469 53.9506L30.761 52.5087ZM4 14C4 8.47715 8.47715 4 14 4V0C6.26801 0 0 6.26801 0 14H4ZM4 38V14H0V38H4ZM14 48C8.47715 48 4 43.5229 4 38H0C0 45.732 6.26801 52 14 52V48ZM15 48H14V52H15V48ZM21.625 51.0668C20.5189 50.0036 18.4916 48 15 48V52C16.7664 52 17.7682 52.9079 18.8531 53.9506L21.625 51.0668ZM22.0261 51.4463C21.91 51.3406 21.7841 51.2197 21.625 51.0668L18.8531 53.9506C19.0031 54.0949 19.1697 54.2551 19.3333 54.4041L22.0261 51.4463ZM25.0293 55.7158C24.0132 53.8781 23.2045 52.5173 22.0249 51.4451L19.3345 54.4052C19.9584 54.9722 20.4849 55.7636 21.5289 57.6515L25.0293 55.7158ZM25.5 56C25.313 56 25.1294 55.8968 25.0293 55.7158L21.5289 57.6515C22.3237 59.0888 23.8377 60 25.5 60V56ZM25.9707 55.7158C25.8706 55.8968 25.687 56 25.5 56V60C27.1623 60 28.6763 59.0888 29.4711 57.6515L25.9707 55.7158ZM28.9751 51.4451C27.7955 52.5173 26.9868 53.8781 25.9707 55.7158L29.4711 57.6515C30.5151 55.7636 31.0416 54.9722 31.6655 54.4052L28.9751 51.4451ZM29.375 51.0668C29.2159 51.2197 29.09 51.3406 28.9739 51.4463L31.6667 54.4041C31.8303 54.2551 31.9969 54.0949 32.1469 53.9506L29.375 51.0668ZM36 48C32.5084 48 30.4811 50.0037 29.375 51.0668L32.1469 53.9506C33.2318 52.9079 34.2336 52 36 52V48ZM38 48H36V52H38V48ZM48 38C48 43.5229 43.5229 48 38 48V52C45.732 52 52 45.732 52 38H48ZM48 14V38H52V14H48ZM38 4C43.5229 4 48 8.47715 48 14H52C52 6.26801 45.732 0 38 0V4ZM14 4H38V0H14V4Z" fill="#F9FAFB" style="fill:#F9FAFB;fill:color(display-p3 0.9765 0.9804 0.9843);fill-opacity:1;" mask="url(#path-1-outside-1_378_5351)"/>
</svg>
