<svg width="54" height="63" viewBox="0 0 54 63" fill="none" xmlns="http://www.w3.org/2000/svg">
<g opacity="0.8">
<mask id="path-1-outside-1_344_6291" maskUnits="userSpaceOnUse" x="1" y="1.5" width="52" height="60" fill="black">
<rect fill="white" x="1" y="1.5" width="52" height="60"/>
<path fill-rule="evenodd" clip-rule="evenodd" d="M15 3.5C8.37258 3.5 3 8.87258 3 15.5V39.5C3 46.1274 8.37258 51.5 15 51.5H16C18.629 51.5 20.1436 52.9558 21.239 54.0087C21.3936 54.1573 21.5398 54.2979 21.6797 54.4252C22.5814 55.2447 23.249 56.3209 24.2791 58.1836C24.7266 58.9928 25.5753 59.5 26.5 59.5C27.4247 59.5 28.2734 58.9928 28.7209 58.1836C29.751 56.3209 30.4186 55.2447 31.3203 54.4252C31.4602 54.2979 31.6064 54.1573 31.761 54.0087C32.8564 52.9558 34.371 51.5 37 51.5H39C45.6274 51.5 51 46.1274 51 39.5V15.5C51 8.87258 45.6274 3.5 39 3.5H15Z"/>
</mask>
<path fill-rule="evenodd" clip-rule="evenodd" d="M15 3.5C8.37258 3.5 3 8.87258 3 15.5V39.5C3 46.1274 8.37258 51.5 15 51.5H16C18.629 51.5 20.1436 52.9558 21.239 54.0087C21.3936 54.1573 21.5398 54.2979 21.6797 54.4252C22.5814 55.2447 23.249 56.3209 24.2791 58.1836C24.7266 58.9928 25.5753 59.5 26.5 59.5C27.4247 59.5 28.2734 58.9928 28.7209 58.1836C29.751 56.3209 30.4186 55.2447 31.3203 54.4252C31.4602 54.2979 31.6064 54.1573 31.761 54.0087C32.8564 52.9558 34.371 51.5 37 51.5H39C45.6274 51.5 51 46.1274 51 39.5V15.5C51 8.87258 45.6274 3.5 39 3.5H15Z" fill="white" style="fill:white;fill-opacity:1;"/>
<path d="M21.239 54.0087L19.8531 55.4506L19.8531 55.4506L21.239 54.0087ZM21.6797 54.4252L20.3333 55.9041L20.3345 55.9052L21.6797 54.4252ZM24.2791 58.1836L26.0293 57.2158L24.2791 58.1836ZM28.7209 58.1836L26.9707 57.2158L28.7209 58.1836ZM31.3203 54.4252L32.6655 55.9052L32.6667 55.9041L31.3203 54.4252ZM31.761 54.0087L33.1469 55.4506L31.761 54.0087ZM5 15.5C5 9.97715 9.47715 5.5 15 5.5V1.5C7.26801 1.5 1 7.76801 1 15.5H5ZM5 39.5V15.5H1V39.5H5ZM15 49.5C9.47715 49.5 5 45.0229 5 39.5H1C1 47.232 7.26801 53.5 15 53.5V49.5ZM16 49.5H15V53.5H16V49.5ZM22.625 52.5668C21.5189 51.5036 19.4916 49.5 16 49.5V53.5C17.7664 53.5 18.7682 54.4079 19.8531 55.4506L22.625 52.5668ZM23.0261 52.9463C22.91 52.8406 22.7841 52.7197 22.625 52.5668L19.8531 55.4506C20.0031 55.5949 20.1697 55.7551 20.3333 55.9041L23.0261 52.9463ZM26.0293 57.2158C25.0132 55.3781 24.2045 54.0173 23.0249 52.9451L20.3345 55.9052C20.9584 56.4722 21.4849 57.2636 22.5289 59.1515L26.0293 57.2158ZM26.5 57.5C26.313 57.5 26.1294 57.3968 26.0293 57.2158L22.5289 59.1515C23.3237 60.5888 24.8377 61.5 26.5 61.5V57.5ZM26.9707 57.2158C26.8706 57.3968 26.687 57.5 26.5 57.5V61.5C28.1623 61.5 29.6763 60.5888 30.4711 59.1515L26.9707 57.2158ZM29.9751 52.9451C28.7955 54.0173 27.9868 55.3781 26.9707 57.2158L30.4711 59.1515C31.5151 57.2636 32.0416 56.4722 32.6655 55.9052L29.9751 52.9451ZM30.375 52.5668C30.2159 52.7197 30.09 52.8406 29.9739 52.9463L32.6667 55.9041C32.8303 55.7551 32.9969 55.5949 33.1469 55.4506L30.375 52.5668ZM37 49.5C33.5084 49.5 31.4811 51.5037 30.375 52.5668L33.1469 55.4506C34.2318 54.4079 35.2336 53.5 37 53.5V49.5ZM39 49.5H37V53.5H39V49.5ZM49 39.5C49 45.0229 44.5229 49.5 39 49.5V53.5C46.732 53.5 53 47.232 53 39.5H49ZM49 15.5V39.5H53V15.5H49ZM39 5.5C44.5229 5.5 49 9.97715 49 15.5H53C53 7.76801 46.732 1.5 39 1.5V5.5ZM15 5.5H39V1.5H15V5.5Z" fill="#9CA3AF" style="fill:#9CA3AF;fill:color(display-p3 0.6118 0.6392 0.6863);fill-opacity:1;" mask="url(#path-1-outside-1_344_6291)"/>
</g>
</svg>
