<svg width="20" height="20" viewBox="0 0 20 20" fill="none" xmlns="http://www.w3.org/2000/svg">
<g clip-path="url(#clip0_378_5215)">
<path d="M15.1429 10.8571H10.8571V15.1429C10.8571 15.6143 10.4714 16 10 16C9.52857 16 9.14286 15.6143 9.14286 15.1429V10.8571H4.85714C4.38571 10.8571 4 10.4714 4 10C4 9.52857 4.38571 9.14286 4.85714 9.14286H9.14286V4.85714C9.14286 4.38571 9.52857 4 10 4C10.4714 4 10.8571 4.38571 10.8571 4.85714V9.14286H15.1429C15.6143 9.14286 16 9.52857 16 10C16 10.4714 15.6143 10.8571 15.1429 10.8571Z" fill="#9CA3AF" style="fill:#9CA3AF;fill:color(display-p3 0.6118 0.6392 0.6863);fill-opacity:1;"/>
</g>
<defs>
<clipPath id="clip0_378_5215">
<rect width="20" height="20" fill="white" style="fill:white;fill-opacity:1;"/>
</clipPath>
</defs>
</svg>
