<svg width="21" height="20" viewBox="0 0 21 20" fill="none" xmlns="http://www.w3.org/2000/svg">
<path d="M18.2338 15.3533C17.944 16.023 17.6009 16.6393 17.2034 17.206C16.6615 17.9786 16.2178 18.5134 15.8759 18.8103C15.3459 19.2978 14.778 19.5474 14.1699 19.5616C13.7334 19.5616 13.2069 19.4374 12.594 19.1854C11.9792 18.9345 11.4141 18.8103 10.8975 18.8103C10.3556 18.8103 9.7745 18.9345 9.1529 19.1854C8.53036 19.4374 8.02884 19.5687 7.6454 19.5817C7.06226 19.6065 6.48101 19.3498 5.90082 18.8103C5.53051 18.4873 5.06733 17.9336 4.51246 17.1493C3.91713 16.3116 3.42768 15.3403 3.04424 14.2329C2.63359 13.0368 2.42773 11.8786 2.42773 10.7573C2.42773 9.47278 2.70529 8.36493 3.26122 7.43656C3.69814 6.69086 4.27939 6.10262 5.00687 5.6708C5.73436 5.23897 6.5204 5.01891 7.36691 5.00483C7.83009 5.00483 8.43749 5.14811 9.1923 5.42968C9.94498 5.7122 10.4283 5.85548 10.6402 5.85548C10.7986 5.85548 11.3355 5.68795 12.2456 5.35396C13.1063 5.04423 13.8327 4.91598 14.4278 4.9665C16.0404 5.09664 17.2519 5.73232 18.0576 6.87755C16.6154 7.75138 15.902 8.97529 15.9162 10.5454C15.9292 11.7683 16.3728 12.786 17.2448 13.5941C17.6399 13.9691 18.0812 14.259 18.5722 14.4648C18.4657 14.7736 18.3533 15.0694 18.2338 15.3533ZM14.5355 0.800129C14.5355 1.75868 14.1853 2.65368 13.4873 3.48208C12.6449 4.46688 11.626 5.03595 10.5211 4.94615C10.5071 4.83116 10.4989 4.71013 10.4989 4.58294C10.4989 3.66274 10.8995 2.67793 11.6109 1.87272C11.9661 1.46503 12.4178 1.12604 12.9655 0.855616C13.5121 0.589231 14.0291 0.441914 14.5154 0.416687C14.5296 0.54483 14.5355 0.672982 14.5355 0.800117V0.800129Z" fill="white" style="fill:white;fill-opacity:1;"/>
</svg>
