<svg width="89" height="30" viewBox="0 0 89 30" fill="none" xmlns="http://www.w3.org/2000/svg">
<path d="M17.699 3.5H7.07972L0.505859 26.5H6.57404L11.378 9.75H13.4007L17.699 26.5H24.2729L17.699 3.5Z" fill="black" style="fill:black;fill-opacity:1;"/>
<path d="M67.7617 3.5H74.4055L78.9076 12.7445L80.7957 16.4622L81.668 18.4468V26.5H75.8526V19.5L67.7617 3.5Z" fill="black" style="fill:black;fill-opacity:1;"/>
<path d="M57.3048 26H48.5449V3.5H57.2411C64.3445 3.5 68.7722 7.71098 68.7722 14.75C68.7722 21.7735 64.3445 26 57.3048 26ZM54.5972 20.9655H57.0818C60.6335 20.9655 62.6562 19.4893 62.6562 14.75C62.6562 9.99517 60.6335 8.53453 56.9225 8.53453H54.5972V20.9655Z" fill="black" style="fill:black;fill-opacity:1;"/>
<path d="M39.3218 3.5H45.5104V18.2211C45.5267 23.5933 41.4226 26.9836 35.3806 27C29.3222 26.9836 25.267 23.5933 25.2833 18.2211V3.5H31.4719V17.6643C31.4719 19.9572 33.1005 21.5951 35.3806 21.5951C37.6932 21.5951 39.3055 19.9572 39.3218 17.6643V3.5Z" fill="black" style="fill:black;fill-opacity:1;"/>
<ellipse cx="85.4599" cy="6" rx="3.03409" ry="3" fill="#1E1BFF" style="fill:#1E1BFF;fill:color(display-p3 0.1187 0.1064 1.0000);fill-opacity:1;"/>
</svg>
