<svg xmlns="http://www.w3.org/2000/svg" width="16" height="16"><path d="M 8.52 1.781 C 8.835 1.4 9.29 1.158 9.785 1.109 C 10.279 1.06 10.773 1.208 11.158 1.52 L 12.912 2.941 C 13.297 3.252 13.541 3.703 13.591 4.193 C 13.64 4.683 13.491 5.172 13.176 5.553 L 11.973 7.011 C 11.942 7.065 11.902 7.113 11.854 7.153 L 6.957 13.082 L 13.051 13.082 C 13.192 13.082 13.32 13.139 13.413 13.23 C 13.505 13.322 13.562 13.449 13.562 13.588 C 13.562 13.868 13.333 14.095 13.051 14.095 L 5.357 14.095 C 5.315 14.097 5.272 14.099 5.23 14.099 L 3.207 14.1 C 2.639 14.1 2.149 13.704 2.037 13.152 L 1.637 11.188 C 1.526 10.642 1.668 10.077 2.024 9.646 Z M 5.888 12.777 L 10.807 6.822 L 7.8 4.252 L 2.815 10.287 C 2.653 10.482 2.588 10.74 2.639 10.988 L 3.038 12.952 C 3.054 13.031 3.124 13.087 3.205 13.087 L 4.802 13.087 C 4.825 13.084 4.848 13.082 4.872 13.082 L 5.315 13.082 C 5.54 13.059 5.745 12.95 5.888 12.777 Z M 12.385 4.913 C 12.528 4.739 12.596 4.517 12.574 4.294 C 12.551 4.071 12.44 3.866 12.265 3.724 L 10.511 2.303 C 10.336 2.162 10.111 2.095 9.886 2.117 C 9.662 2.139 9.455 2.249 9.312 2.422 L 8.447 3.469 L 11.455 6.039 L 12.385 4.912 Z" fill=currentColor stroke-width="0.3" stroke="rgb(17, 24, 39)" stroke-miterlimit="10"></path></svg>