<svg xmlns="http://www.w3.org/2000/svg" width="16" height="16"><path d="M 14.194 5.664 C 14.316 5.445 14.232 5.172 14.008 5.053 C 13.784 4.934 13.503 5.016 13.382 5.234 C 12.947 6.014 12.377 6.698 11.574 7.189 C 10.773 7.68 9.708 7.999 8.25 7.999 C 6.793 7.999 5.729 7.68 4.927 7.189 C 4.125 6.698 3.555 6.014 3.117 5.233 C 2.994 5.015 2.714 4.935 2.49 5.054 C 2.266 5.174 2.184 5.447 2.307 5.665 C 2.796 6.537 3.461 7.35 4.424 7.943 L 3.616 8.731 C 3.447 8.908 3.452 9.184 3.627 9.356 C 3.803 9.527 4.087 9.532 4.268 9.367 L 5.284 8.378 C 5.993 8.666 6.82 8.846 7.788 8.889 L 7.788 10.549 C 7.788 10.797 7.995 10.999 8.25 10.999 C 8.505 10.999 8.711 10.797 8.711 10.549 L 8.711 8.889 C 9.679 8.846 10.506 8.667 11.217 8.379 L 12.231 9.367 C 12.347 9.484 12.519 9.53 12.68 9.489 C 12.841 9.448 12.967 9.325 13.009 9.168 C 13.052 9.01 13.003 8.843 12.883 8.73 L 12.077 7.944 C 13.041 7.35 13.707 6.537 14.194 5.664 Z" fill=currentColor stroke-width="0.3" stroke="rgba(0,0,0,1)" stroke-miterlimit="10"></path></svg>