<svg xmlns="http://www.w3.org/2000/svg" width="16" height="16"><path d="M 1.281 10.494 C 1.156 10.424 1.062 10.305 1.022 10.163 C 0.982 10.022 0.997 9.87 1.066 9.74 C 1.633 8.662 2.41 7.658 3.535 6.926 L 2.593 5.954 C 2.396 5.735 2.402 5.394 2.607 5.182 C 2.812 4.971 3.142 4.965 3.354 5.168 L 4.539 6.389 C 5.368 6.034 6.333 5.812 7.462 5.76 L 7.462 3.709 C 7.462 3.402 7.703 3.154 8 3.154 C 8.298 3.154 8.539 3.402 8.539 3.709 L 8.539 5.759 C 9.668 5.812 10.633 6.034 11.461 6.39 L 12.645 5.168 C 12.856 4.951 13.197 4.951 13.407 5.168 C 13.617 5.386 13.617 5.738 13.406 5.954 L 12.464 6.926 C 13.587 7.66 14.363 8.662 14.934 9.74 C 15.077 10.009 14.981 10.346 14.72 10.494 C 14.459 10.641 14.132 10.542 13.989 10.273 C 13.479 9.308 12.812 8.464 11.876 7.857 C 10.941 7.251 9.7 6.857 7.999 6.857 C 6.299 6.857 5.056 7.251 4.121 7.857 C 3.184 8.465 2.518 9.309 2.011 10.271 C 1.869 10.54 1.542 10.64 1.281 10.494 Z M 9.256 10.746 C 9.256 11.462 8.693 12.043 7.999 12.043 C 7.306 12.043 6.743 11.462 6.743 10.746 C 6.743 10.03 7.306 9.45 7.999 9.45 C 8.693 9.45 9.256 10.03 9.256 10.746 Z M 7.999 8.339 C 6.711 8.339 5.666 9.417 5.666 10.746 C 5.666 12.076 6.711 13.154 7.999 13.154 C 9.288 13.154 10.333 12.076 10.333 10.746 C 10.333 9.417 9.288 8.339 7.999 8.339 Z" fill=currentColor stroke-width="0.3" stroke="rgb(17, 24, 39)" stroke-miterlimit="10"></path></svg>