<svg width="21" height="20" viewBox="0 0 21 20" fill="none" xmlns="http://www.w3.org/2000/svg">
<path fill-rule="evenodd" clip-rule="evenodd" d="M10.5007 2C5.52933 2 1.5 4.96448 1.5 8.62128C1.5 10.8958 3.05862 12.9003 5.43181 14.0925L4.43173 17.5659C4.41348 17.6345 4.41766 17.7067 4.4437 17.7729C4.46973 17.8392 4.5164 17.8964 4.57753 17.9369C4.63865 17.9775 4.71134 17.9995 4.78595 18C4.86056 18.0005 4.93355 17.9795 4.99529 17.9398L9.37266 15.189C9.74169 15.2227 10.1172 15.2426 10.4993 15.2426C15.4702 15.2426 19.5 12.2776 19.5 8.62128C19.5 4.96496 15.4702 2 10.4993 2" fill="#1A1B1F" style="fill:#1A1B1F;fill:color(display-p3 0.1020 0.1059 0.1216);fill-opacity:1;"/>
</svg>
