<svg width="24" height="24" viewBox="0 0 24 24" fill="currentColor" xmlns="http://www.w3.org/2000/svg">
<path fill-rule="evenodd" clip-rule="evenodd" d="M12.3973 20.3886C13.9484 19.5887 19.505 16.3456 19.505 10.9339C19.505 6.78876 16.1447 3.42847 11.9996 3.42847C7.85444 3.42847 4.49414 6.78876 4.49414 10.9339C4.49414 16.3456 10.0508 19.5887 11.6018 20.3886C11.855 20.5191 12.1442 20.5191 12.3973 20.3886ZM11.9998 14.1505C13.7763 14.1505 15.2164 12.7104 15.2164 10.9339C15.2164 9.15741 13.7763 7.71729 11.9998 7.71729C10.2233 7.71729 8.7832 9.15741 8.7832 10.9339C8.7832 12.7104 10.2233 14.1505 11.9998 14.1505Z" />
</svg>
