<svg width="14" height="15" viewBox="0 0 14 15" fill="none" xmlns="http://www.w3.org/2000/svg">
<path fill-rule="evenodd" clip-rule="evenodd" d="M7.39815 12.3049C8.47796 11.7179 11.3774 9.86383 11.3774 6.87811C11.3774 4.46011 9.41726 2.49994 6.99926 2.49994C4.58127 2.49994 2.62109 4.46011 2.62109 6.87811C2.62109 9.86383 5.52056 11.7179 6.60037 12.3049C6.85064 12.4409 7.14788 12.4409 7.39815 12.3049ZM6.9994 8.75447C8.03569 8.75447 8.87576 7.91439 8.87576 6.87811C8.87576 5.84182 8.03569 5.00175 6.9994 5.00175C5.96312 5.00175 5.12305 5.84182 5.12305 6.87811C5.12305 7.91439 5.96312 8.75447 6.9994 8.75447Z" fill="#9CA3AF" style="fill:#9CA3AF;fill:color(display-p3 0.6118 0.6392 0.6863);fill-opacity:1;"/>
</svg>
