<svg width="20" height="20" viewBox="0 0 20 20" fill="currentColor" xmlns="http://www.w3.org/2000/svg">
<path d="M12.3666 4.71881L12.8969 5.24914L12.8969 5.24914L12.3666 4.71881ZM4.99484 12.0905L5.52517 12.6209L5.52517 12.6209L4.99484 12.0905ZM12.4431 4.64302L11.9255 4.10027L11.9255 4.10027L12.4431 4.64302ZM15.2037 4.64302L14.6861 5.18577L14.6861 5.18578L15.2037 4.64302ZM15.2803 4.71881L14.75 5.24914L14.7506 5.24976L15.2803 4.71881ZM15.2805 4.71896L15.811 4.18881L15.8102 4.188L15.2805 4.71896ZM15.2808 4.71923L14.7502 5.24938L14.7504 5.24955L15.2808 4.71923ZM15.3561 4.79539L14.8134 5.31299L14.8134 5.31301L15.3561 4.79539ZM15.3561 7.556L14.8134 7.03839L14.8134 7.03839L15.3561 7.556ZM15.2803 7.63258L14.75 7.10225L14.75 7.10225L15.2803 7.63258ZM7.90862 15.0043L8.43895 15.5346L7.90862 15.0043ZM7.47448 15.4082L7.02709 14.8063L7.02708 14.8063L7.47448 15.4082ZM6.95524 15.6861L7.20792 16.3923H7.20792L6.95524 15.6861ZM6.37832 15.8233L6.23123 15.0879L6.17546 15.099L6.12201 15.1184L6.37832 15.8233ZM6.37831 15.8233L6.5254 16.5587L6.58117 16.5476L6.63462 16.5281L6.37831 15.8233ZM6.37828 15.8233L6.52537 16.5587H6.52537L6.37828 15.8233ZM4.85952 15.9778L5.07502 15.2594H5.07502L4.85952 15.9778ZM4.02139 15.1396L3.30301 15.3551L3.30301 15.3551L4.02139 15.1396ZM4.17585 13.6208L3.44042 13.4737L4.17585 13.6208ZM4.313 13.0439L3.60685 12.7912L3.60685 12.7912L4.313 13.0439ZM4.59089 12.5247L3.98895 12.0773L3.98895 12.0773L4.59089 12.5247ZM11.8362 4.18848L4.46451 11.5602L5.52517 12.6209L12.8969 5.24914L11.8362 4.18848ZM11.9255 4.10027C11.9003 4.12431 11.8728 4.1519 11.8362 4.18848L12.8969 5.24914C12.9396 5.20647 12.9517 5.19444 12.9608 5.18576L11.9255 4.10027ZM15.7214 4.10027C14.6589 3.08704 12.988 3.08704 11.9255 4.10027L12.9608 5.18577C13.4437 4.72521 14.2032 4.72521 14.6861 5.18577L15.7214 4.10027ZM15.8107 4.18848C15.7741 4.1519 15.7466 4.1243 15.7214 4.10026L14.6861 5.18578C14.6952 5.19445 14.7073 5.20647 14.75 5.24914L15.8107 4.18848ZM15.8102 4.188L15.81 4.18785L14.7506 5.24976L14.7508 5.24991L15.8102 4.188ZM15.8113 4.18907L15.811 4.18881L14.75 5.24911L14.7502 5.24938L15.8113 4.18907ZM15.8989 4.27779C15.8749 4.25265 15.8474 4.22522 15.8111 4.1889L14.7504 5.24955C14.7928 5.29192 14.8047 5.30395 14.8134 5.31299L15.8989 4.27779ZM15.8989 8.07361C16.9121 7.01118 16.9121 5.34021 15.8989 4.27778L14.8134 5.31301C15.2739 5.79593 15.2739 6.55546 14.8134 7.03839L15.8989 8.07361ZM15.8107 8.16292C15.8472 8.12633 15.8748 8.09882 15.8989 8.07361L14.8134 7.03839C14.8047 7.04748 14.7927 7.05959 14.75 7.10225L15.8107 8.16292ZM8.43895 15.5346L15.8107 8.16291L14.75 7.10225L7.37829 14.474L8.43895 15.5346ZM8.43893 15.5346L8.43895 15.5346L7.37829 14.474L7.37827 14.474L8.43893 15.5346ZM7.92188 16.0102C8.09368 15.8825 8.24299 15.7306 8.43893 15.5346L7.37827 14.474C7.15216 14.7001 7.09043 14.7592 7.02709 14.8063L7.92188 16.0102ZM7.20792 16.3923C7.46345 16.3009 7.70405 16.1721 7.92188 16.0102L7.02708 14.8063C6.92807 14.8799 6.81872 14.9384 6.70256 14.98L7.20792 16.3923ZM6.5254 16.5587C6.79714 16.5044 7.00637 16.4644 7.20792 16.3923L6.70256 14.98C6.62825 15.0066 6.54482 15.0251 6.23123 15.0879L6.5254 16.5587ZM6.63462 16.5281L6.63462 16.5281L6.12201 15.1184L6.122 15.1184L6.63462 16.5281ZM6.52537 16.5587L6.5254 16.5587L6.23122 15.0879L6.23119 15.0879L6.52537 16.5587ZM4.64402 16.6961C4.94197 16.7855 5.24114 16.7733 5.517 16.7396C5.7925 16.7058 6.13029 16.6377 6.52537 16.5587L6.23119 15.0879C5.81283 15.1715 5.54054 15.2255 5.33467 15.2507C5.2361 15.2628 5.17133 15.2657 5.12802 15.2645C5.087 15.2635 5.07344 15.2589 5.07502 15.2594L4.64402 16.6961ZM3.30301 15.3551C3.4962 15.9991 4.00003 16.5029 4.64403 16.6961L5.07502 15.2594C4.91402 15.2111 4.78806 15.0851 4.73976 14.9241L3.30301 15.3551ZM3.44042 13.4737C3.3614 13.8688 3.29332 14.2066 3.25958 14.4821C3.2258 14.758 3.21363 15.0572 3.30301 15.3551L4.73976 14.9241C4.74023 14.9257 4.73567 14.9121 4.7346 14.8711C4.73347 14.8278 4.73639 14.763 4.74846 14.6645C4.77367 14.4586 4.82761 14.1863 4.91129 13.7679L3.44042 13.4737ZM3.60685 12.7912C3.53473 12.9928 3.49476 13.202 3.44042 13.4737L4.91129 13.7679C4.974 13.4543 4.99257 13.3709 5.01916 13.2966L3.60685 12.7912ZM3.98895 12.0773C3.82705 12.2951 3.69829 12.5357 3.60685 12.7912L5.01916 13.2966C5.06072 13.1804 5.11925 13.0711 5.19284 12.9721L3.98895 12.0773ZM4.46451 11.5602C4.26856 11.7561 4.11664 11.9055 3.98895 12.0773L5.19284 12.9721C5.23992 12.9087 5.29904 12.847 5.52517 12.6209L4.46451 11.5602ZM9.87213 6.96638C10.6615 8.2525 11.7521 9.33531 13.0542 10.1162L13.8257 8.8298C12.7312 8.17344 11.8142 7.26305 11.1505 6.1817L9.87213 6.96638Z"/>
</svg>
