<svg width="24" height="24" viewBox="0 0 24 24" fill="currentColor" xmlns="http://www.w3.org/2000/svg">
<g id="icon ">
<path id="Subtract" fill-rule="evenodd" clip-rule="evenodd" d="M16.8213 10.7177L18.1223 9.41667L18.1223 9.41667C18.4327 9.10626 18.5879 8.95106 18.6929 8.79749C19.1585 8.11677 19.1585 7.22005 18.6929 6.53932C18.5879 6.38576 18.4327 6.23055 18.1223 5.92015L18.1223 5.92014C17.8119 5.60974 17.6567 5.45453 17.5031 5.3495C16.8224 4.88391 15.9256 4.88391 15.2449 5.3495C15.0914 5.45453 14.9361 5.60974 14.6257 5.92014L13.4342 7.11164C14.2198 8.59238 15.3896 9.83921 16.8213 10.7177ZM11.967 8.57888L5.77968 14.7662C5.44126 15.1046 5.27205 15.2738 5.14881 15.4743C5.1071 15.5422 5.06948 15.6125 5.03615 15.6848C4.93768 15.8986 4.89075 16.1333 4.79689 16.6026C4.53406 17.9167 4.40265 18.5738 4.68798 19.0039C4.78026 19.143 4.89946 19.2622 5.03855 19.3544C5.46864 19.6398 6.12571 19.5084 7.43985 19.2455L7.43986 19.2455C7.90916 19.1517 8.14381 19.1047 8.35758 19.0063C8.42992 18.9729 8.50021 18.9353 8.56807 18.8936C8.76858 18.7704 8.93779 18.6012 9.27621 18.2627L15.3743 12.1646C13.9887 11.2324 12.8255 10.007 11.967 8.57888Z" />
</g>
</svg>
