<svg width="18" height="19" viewBox="0 0 18 19" fill="currentColor" xmlns="http://www.w3.org/2000/svg">
<path d="M2.25 6.5C2.25 4.42893 3.92893 2.75 6 2.75H12C14.0711 2.75 15.75 4.42893 15.75 6.5V12.5C15.75 14.5711 14.0711 16.25 12 16.25H6C3.92893 16.25 2.25 14.5711 2.25 12.5V6.5Z" />
<path d="M11.8996 5.33301H10.5931V14.0203H11.8996V9.64251H13.1671V8.57976H11.8996V5.33301ZM10.0958 11.495C10.0471 11.1733 9.99835 10.8223 9.93985 10.481C9.15985 10.637 7.93135 10.7833 6.89785 10.7833H6.66385V6.18126H5.3866V11.9045H6.25435C7.32685 11.9045 8.98435 11.7583 10.0958 11.495Z" fill="white" style="fill:white;fill-opacity:1;"/>
</svg>
