<svg width="14" height="15" viewBox="0 0 14 15" fill="currentColor" xmlns="http://www.w3.org/2000/svg">
<path d="M7.69545 3.50682C8.18071 3.18331 8.42334 3.02156 8.685 3.0026C8.79841 2.99438 8.91239 3.00567 9.02199 3.03597C9.27486 3.10588 9.48105 3.31207 9.89344 3.72446L10.7755 4.60656C11.1879 5.01895 11.3941 5.22514 11.464 5.47801C11.4943 5.58761 11.5056 5.70159 11.4974 5.815C11.4784 6.07666 11.3167 6.31929 10.9932 6.80455L10.3007 7.84321C9.74826 8.67193 9.36348 9.60086 9.16815 10.5775L9.05731 11.1317C8.97524 11.5421 8.49972 11.7342 8.15562 11.496C6.14271 10.1024 4.39758 8.35729 3.00402 6.34438C2.7658 6.00028 2.9579 5.52476 3.36828 5.44269L3.92248 5.33185C4.89914 5.13651 5.82807 4.75174 6.65679 4.19926L7.69545 3.50682Z" />
<path fill-rule="evenodd" clip-rule="evenodd" d="M8.61273 2.00522C8.84014 1.98874 9.0687 2.01137 9.28846 2.07213C9.60394 2.15934 9.84473 2.32304 10.0367 2.48239C10.2077 2.62437 10.3912 2.8079 10.5759 2.9927C10.5841 3.00092 10.5923 3.00914 10.6005 3.01735L11.4826 3.89945C11.4909 3.90767 11.4991 3.91588 11.5073 3.92409C11.6921 4.10884 11.8756 4.29231 12.0176 4.46333C12.177 4.65526 12.3407 4.89606 12.4279 5.21154C12.4886 5.43131 12.5113 5.65986 12.4948 5.88727C12.4711 6.21372 12.3578 6.48195 12.2392 6.7014C12.1335 6.89694 11.9896 7.11284 11.8446 7.33023L11.1328 8.39791C10.6528 9.11795 10.3184 9.92506 10.1487 10.7736L10.0379 11.3278C9.81475 12.4436 8.52193 12.9658 7.58641 12.3182C6.80578 11.7777 6.06354 11.1869 5.36412 10.5501L3.20711 12.7071C2.81658 13.0976 2.18342 13.0976 1.79289 12.7071C1.40237 12.3166 1.40237 11.6834 1.79289 11.2929L3.94991 9.13588C3.31311 8.43646 2.72227 7.69422 2.18183 6.91359C1.53417 5.97808 2.05644 4.68525 3.17217 4.46211L3.72636 4.35127C4.57494 4.18155 5.38205 3.84723 6.10209 3.36721L7.14075 2.67477C7.15042 2.66832 7.1601 2.66187 7.16977 2.65542C7.38716 2.51044 7.60305 2.36646 7.7986 2.26078C8.01805 2.14217 8.28628 2.02887 8.61273 2.00522Z" />
</svg>
