<svg width="20" height="20" viewBox="0 0 20 20" fill="currentColor" xmlns="http://www.w3.org/2000/svg">
<path d="M12.9172 11.6667H12.2589L12.0255 11.4417C13.0255 10.275 13.5422 8.68334 13.2589 6.99167C12.8672 4.675 10.9339 2.825 8.60052 2.54167C5.07552 2.10834 2.10885 5.075 2.54219 8.6C2.82552 10.9333 4.67552 12.8667 6.99219 13.2583C8.68386 13.5417 10.2755 13.025 11.4422 12.025L11.6672 12.2583V12.9167L15.2089 16.4583C15.5505 16.8 16.1089 16.8 16.4505 16.4583C16.7922 16.1167 16.7922 15.5583 16.4505 15.2167L12.9172 11.6667ZM7.91719 11.6667C5.84219 11.6667 4.16719 9.99167 4.16719 7.91667C4.16719 5.84167 5.84219 4.16667 7.91719 4.16667C9.99219 4.16667 11.6672 5.84167 11.6672 7.91667C11.6672 9.99167 9.99219 11.6667 7.91719 11.6667Z" />
</svg>
