<svg width="24" height="24" viewBox="0 0 24 24" fill="currentColor" xmlns="http://www.w3.org/2000/svg">
<g clip-path="url(#clip0_232_5466)">
<path fill-rule="evenodd" clip-rule="evenodd" d="M12.0009 1.48462C11.3435 1.48462 10.7716 1.9062 9.62764 2.74936L7.90673 4.01781C7.72653 4.15064 7.63643 4.21705 7.53969 4.27291C7.44295 4.32876 7.34039 4.37358 7.13525 4.46323L5.17628 5.31935C3.87413 5.88843 3.22305 6.17297 2.89433 6.74233C2.56561 7.31168 2.64473 8.0178 2.80298 9.43003L3.04104 11.5546C3.06597 11.7771 3.07843 11.8883 3.07843 12C3.07843 12.1117 3.06597 12.223 3.04104 12.4454L2.80298 14.57C2.64473 15.9823 2.56561 16.6884 2.89433 17.2577C3.22305 17.8271 3.87413 18.1116 5.17628 18.6807L7.13525 19.5368C7.34039 19.6265 7.44295 19.6713 7.53969 19.7272C7.63643 19.783 7.72653 19.8494 7.90673 19.9822L9.62764 21.2507C10.7716 22.0939 11.3435 22.5154 12.0009 22.5154C12.6584 22.5154 13.2303 22.0939 14.3742 21.2507L14.3743 21.2507L16.0952 19.9822C16.2754 19.8494 16.3655 19.783 16.4622 19.7272C16.5589 19.6713 16.6615 19.6265 16.8666 19.5368L18.8256 18.6807C20.1278 18.1116 20.7788 17.8271 21.1076 17.2577C21.4363 16.6884 21.3572 15.9823 21.1989 14.57L20.9609 12.4454L20.9608 12.4454C20.9359 12.223 20.9235 12.1117 20.9235 12C20.9235 11.8883 20.9359 11.7771 20.9608 11.5547L20.9609 11.5546L21.1989 9.43004C21.3572 8.0178 21.4363 7.31168 21.1076 6.74233C20.7788 6.17297 20.1278 5.88843 18.8256 5.31935L16.8666 4.46323L16.8666 4.46323C16.6615 4.37358 16.5589 4.32876 16.4622 4.27291C16.3655 4.21705 16.2754 4.15064 16.0952 4.01781L14.3743 2.74936C13.2303 1.9062 12.6584 1.48462 12.0009 1.48462ZM12.0009 16C14.2101 16 16.0009 14.2092 16.0009 12C16.0009 9.79089 14.2101 8.00003 12.0009 8.00003C9.79181 8.00003 8.00095 9.79089 8.00095 12C8.00095 14.2092 9.79181 16 12.0009 16Z"/>
</g>
<defs>
<clipPath id="clip0_232_5466">
<rect width="24" height="24" fill="white" style="fill:white;fill-opacity:1;"/>
</clipPath>
</defs>
</svg>
