<svg xmlns="http://www.w3.org/2000/svg" width="20" height="20"><path d="M 11.042 4.792 C 11.042 5.367 10.575 5.833 10 5.833 C 9.425 5.833 8.958 5.367 8.958 4.792 C 8.958 4.216 9.425 3.75 10 3.75 C 10.575 3.75 11.042 4.216 11.042 4.792 Z M 11.042 10 C 11.042 10.575 10.575 11.042 10 11.042 C 9.425 11.042 8.958 10.575 8.958 10 C 8.958 9.425 9.425 8.958 10 8.958 C 10.575 8.958 11.042 9.425 11.042 10 Z M 10 16.25 C 10.575 16.25 11.042 15.784 11.042 15.208 C 11.042 14.633 10.575 14.167 10 14.167 C 9.425 14.167 8.958 14.633 8.958 15.208 C 8.958 15.784 9.425 16.25 10 16.25 Z" fill=currentColor></path></svg>