<svg width="20" height="20" viewBox="0 0 20 20" fill="currentColor" xmlns="http://www.w3.org/2000/svg">
<path d="M12.7814 3.23066L13.8737 4.84375H15.9511C16.3469 4.84375 16.6654 5.15869 16.6654 5.54688C16.6654 5.93652 16.3469 6.25 15.9511 6.25H15.713V15.1562C15.713 16.4512 14.6475 17.5 13.332 17.5H6.66536C5.35048 17.5 4.28441 16.4512 4.28441 15.1562V6.25H4.04632C3.65197 6.25 3.33203 5.93652 3.33203 5.54688C3.33203 5.15869 3.65197 4.84375 4.04632 4.84375H6.12429L7.21596 3.23066C7.52548 2.77413 8.04632 2.5 8.60286 2.5H11.3945C11.9511 2.5 12.4719 2.77416 12.7814 3.23066ZM7.84096 4.84375H12.1564L11.591 4.01055C11.5463 3.94551 11.4719 3.90625 11.3945 3.90625H8.60286C8.52548 3.90625 8.42429 3.94551 8.40644 4.01055L7.84096 4.84375ZM5.71298 15.1562C5.71298 15.6748 6.13947 16.0938 6.66536 16.0938H13.332C13.8588 16.0938 14.2844 15.6748 14.2844 15.1562V6.25H5.71298V10.7031V15.1562Z"/>
<path fill-rule="evenodd" clip-rule="evenodd" d="M8.33333 8.49996C8.70152 8.49996 9 8.79843 9 9.16662L9 14.1666C9 14.5348 8.70152 14.8333 8.33333 14.8333C7.96514 14.8333 7.66667 14.5348 7.66667 14.1666L7.66667 9.16662C7.66667 8.79843 7.96514 8.49996 8.33333 8.49996Z"/>
<path fill-rule="evenodd" clip-rule="evenodd" d="M11.7161 8.49996C12.0843 8.49996 12.3828 8.79843 12.3828 9.16662L12.3828 14.1666C12.3828 14.5348 12.0843 14.8333 11.7161 14.8333C11.348 14.8333 11.0495 14.5348 11.0495 14.1666L11.0495 9.16662C11.0495 8.79843 11.348 8.49996 11.7161 8.49996Z" />
</svg>
